<svg width="450" height="450" xmlns="http://www.w3.org/2000/svg" version="1.1"><line x1="424" y1="224.99998" x2="426" y2="224.99998" stroke="#888" stroke-width="2"/><line x1="422.90985" y1="204.19882" x2="424.89893" y2="203.98978" stroke="#888" stroke-width="2"/><line x1="419.65137" y1="183.62556" x2="421.60767" y2="183.20975" stroke="#888" stroke-width="2"/><line x1="414.26025" y1="163.50562" x2="416.16235" y2="162.88757" stroke="#888" stroke-width="2"/><line x1="406.79553" y1="144.05939" x2="408.62262" y2="143.24593" stroke="#888" stroke-width="2"/><line x1="397.33905" y1="125.499985" x2="399.0711" y2="124.499985" stroke="#888" stroke-width="2"/><line x1="385.9944" y1="108.03075" x2="387.61243" y2="106.85518" stroke="#888" stroke-width="2"/><line x1="372.8858" y1="91.84299" x2="374.3721" y2="90.50473" stroke="#888" stroke-width="2"/><line x1="358.15695" y1="77.11417" x2="359.49524" y2="75.62787" stroke="#888" stroke-width="2"/><line x1="341.96924" y1="64.0056" x2="343.14484" y2="62.387573" stroke="#888" stroke-width="2"/><line x1="324.5" y1="52.66095" x2="325.5" y2="50.928894" stroke="#888" stroke-width="2"/><line x1="305.94058" y1="43.204453" x2="306.75406" y2="41.37735" stroke="#888" stroke-width="2"/><line x1="286.49435" y1="35.73973" x2="287.11237" y2="33.837616" stroke="#888" stroke-width="2"/><line x1="266.37442" y1="30.348618" x2="266.79022" y2="28.392334" stroke="#888" stroke-width="2"/><line x1="245.80118" y1="27.090134" x2="246.01022" y2="25.10109" stroke="#888" stroke-width="2"/><line x1="224.99998" y1="26" x2="224.99998" y2="24" stroke="#888" stroke-width="2"/><line x1="204.19879" y1="27.090149" x2="203.98973" y2="25.101105" stroke="#888" stroke-width="2"/><line x1="183.62555" y1="30.348633" x2="183.20973" y2="28.392334" stroke="#888" stroke-width="2"/><line x1="163.50562" y1="35.739746" x2="162.88759" y2="33.83763" stroke="#888" stroke-width="2"/><line x1="144.05939" y1="43.204453" x2="143.24591" y2="41.377365" stroke="#888" stroke-width="2"/><line x1="125.49996" y1="52.660965" x2="124.49996" y2="50.928925" stroke="#888" stroke-width="2"/><line x1="108.030716" y1="64.00563" x2="106.85514" y2="62.38759" stroke="#888" stroke-width="2"/><line x1="91.843" y1="77.11418" x2="90.504745" y2="75.6279" stroke="#888" stroke-width="2"/><line x1="77.114136" y1="91.84306" x2="75.62784" y2="90.50481" stroke="#888" stroke-width="2"/><line x1="64.0056" y1="108.03077" x2="62.387558" y2="106.8552" stroke="#888" stroke-width="2"/><line x1="52.660934" y1="125.500015" x2="50.92888" y2="124.500015" stroke="#888" stroke-width="2"/><line x1="43.204453" y1="144.05942" x2="41.377365" y2="143.24594" stroke="#888" stroke-width="2"/><line x1="35.73973" y1="163.50569" x2="33.837616" y2="162.88765" stroke="#888" stroke-width="2"/><line x1="30.348618" y1="183.62563" x2="28.392334" y2="183.20981" stroke="#888" stroke-width="2"/><line x1="27.090134" y1="204.19885" x2="25.10109" y2="203.9898" stroke="#888" stroke-width="2"/><line x1="26" y1="225" x2="24" y2="225" stroke="#888" stroke-width="2"/><line x1="27.090149" y1="245.80124" x2="25.101105" y2="246.0103" stroke="#888" stroke-width="2"/><line x1="30.348633" y1="266.37448" x2="28.392334" y2="266.79028" stroke="#888" stroke-width="2"/><line x1="35.73976" y1="286.49442" x2="33.837646" y2="287.11243" stroke="#888" stroke-width="2"/><line x1="43.204453" y1="305.9406" x2="41.377365" y2="306.7541" stroke="#888" stroke-width="2"/><line x1="52.66098" y1="324.50006" x2="50.92894" y2="325.50006" stroke="#888" stroke-width="2"/><line x1="64.005646" y1="341.9693" x2="62.38762" y2="343.1449" stroke="#888" stroke-width="2"/><line x1="77.1142" y1="358.157" x2="75.6279" y2="359.4953" stroke="#888" stroke-width="2"/><line x1="91.84302" y1="372.88583" x2="90.50476" y2="374.37213" stroke="#888" stroke-width="2"/><line x1="108.03079" y1="385.99445" x2="106.855225" y2="387.6125" stroke="#888" stroke-width="2"/><line x1="125.500046" y1="397.33908" x2="124.500046" y2="399.07114" stroke="#888" stroke-width="2"/><line x1="144.05945" y1="406.79556" x2="143.24597" y2="408.62265" stroke="#888" stroke-width="2"/><line x1="163.50563" y1="414.26025" x2="162.8876" y2="416.16235" stroke="#888" stroke-width="2"/><line x1="183.62566" y1="419.65137" x2="183.20982" y2="421.60767" stroke="#888" stroke-width="2"/><line x1="204.1989" y1="422.90985" x2="203.98984" y2="424.89893" stroke="#888" stroke-width="2"/><line x1="225.00003" y1="424" x2="225.00003" y2="426" stroke="#888" stroke-width="2"/><line x1="245.80127" y1="422.90985" x2="246.01033" y2="424.8989" stroke="#888" stroke-width="2"/><line x1="266.3745" y1="419.65137" x2="266.79034" y2="421.60767" stroke="#888" stroke-width="2"/><line x1="286.49445" y1="414.26022" x2="287.1125" y2="416.16235" stroke="#888" stroke-width="2"/><line x1="305.9406" y1="406.79553" x2="306.7541" y2="408.62262" stroke="#888" stroke-width="2"/><line x1="324.5" y1="397.33905" x2="325.5" y2="399.0711" stroke="#888" stroke-width="2"/><line x1="341.96933" y1="385.99432" x2="343.1449" y2="387.61237" stroke="#888" stroke-width="2"/><line x1="358.15704" y1="372.8858" x2="359.4953" y2="374.37207" stroke="#888" stroke-width="2"/><line x1="372.88583" y1="358.15695" x2="374.37213" y2="359.49524" stroke="#888" stroke-width="2"/><line x1="385.99445" y1="341.96918" x2="387.6125" y2="343.14474" stroke="#888" stroke-width="2"/><line x1="397.3391" y1="324.49994" x2="399.07117" y2="325.49994" stroke="#888" stroke-width="2"/><line x1="406.7956" y1="305.94052" x2="408.62268" y2="306.754" stroke="#888" stroke-width="2"/><line x1="414.26025" y1="286.49435" x2="416.16238" y2="287.11237" stroke="#888" stroke-width="2"/><line x1="419.65137" y1="266.37442" x2="421.60767" y2="266.79022" stroke="#888" stroke-width="2"/><line x1="422.90985" y1="245.80107" x2="424.89893" y2="246.01013" stroke="#888" stroke-width="2"/><line x1="381" y1="225" x2="397" y2="225" stroke="#888" stroke-width="2"/><line x1="380.14542" y1="208.69356" x2="396.05777" y2="207.0211" stroke="#888" stroke-width="2"/><line x1="377.591" y1="192.56577" x2="393.2414" y2="189.23918" stroke="#888" stroke-width="2"/><line x1="373.3648" y1="176.79333" x2="388.58173" y2="171.84908" stroke="#888" stroke-width="2"/><line x1="367.5131" y1="161.54907" x2="382.12982" y2="155.04129" stroke="#888" stroke-width="2"/><line x1="360.09998" y1="147" x2="373.95636" y2="139" stroke="#888" stroke-width="2"/><line x1="351.20667" y1="133.30551" x2="364.15094" y2="123.90095" stroke="#888" stroke-width="2"/><line x1="340.9306" y1="120.615616" x2="352.82092" y2="109.90952" stroke="#888" stroke-width="2"/><line x1="329.38434" y1="109.06939" x2="340.09045" y2="97.17907" stroke="#888" stroke-width="2"/><line x1="316.6945" y1="98.793335" x2="326.09906" y2="85.84906" stroke="#888" stroke-width="2"/><line x1="303" y1="89.90004" x2="311" y2="76.04364" stroke="#888" stroke-width="2"/><line x1="288.4509" y1="82.48691" x2="294.95868" y2="67.87018" stroke="#888" stroke-width="2"/><line x1="273.2066" y1="76.63518" x2="278.15088" y2="61.41826" stroke="#888" stroke-width="2"/><line x1="257.4342" y1="72.408966" x2="260.7608" y2="56.758606" stroke="#888" stroke-width="2"/><line x1="241.30644" y1="69.85458" x2="242.9789" y2="53.94223" stroke="#888" stroke-width="2"/><line x1="224.99998" y1="69" x2="224.99998" y2="53" stroke="#888" stroke-width="2"/><line x1="208.69353" y1="69.85458" x2="207.02107" y2="53.942245" stroke="#888" stroke-width="2"/><line x1="192.56577" y1="72.40898" x2="189.23917" y2="56.75862" stroke="#888" stroke-width="2"/><line x1="176.79335" y1="76.63518" x2="171.84908" y2="61.418274" stroke="#888" stroke-width="2"/><line x1="161.54907" y1="82.48691" x2="155.04129" y2="67.87019" stroke="#888" stroke-width="2"/><line x1="146.99997" y1="89.900055" x2="138.99997" y2="76.043655" stroke="#888" stroke-width="2"/><line x1="133.30548" y1="98.79336" x2="123.90092" y2="85.84909" stroke="#888" stroke-width="2"/><line x1="120.61562" y1="109.06941" x2="109.90953" y2="97.17909" stroke="#888" stroke-width="2"/><line x1="109.069374" y1="120.61567" x2="97.179054" y2="109.909584" stroke="#888" stroke-width="2"/><line x1="98.79333" y1="133.30553" x2="85.84906" y2="123.90097" stroke="#888" stroke-width="2"/><line x1="89.900024" y1="147.00002" x2="76.043625" y2="139.00002" stroke="#888" stroke-width="2"/><line x1="82.48691" y1="161.54909" x2="67.87019" y2="155.04129" stroke="#888" stroke-width="2"/><line x1="76.63518" y1="176.7934" x2="61.41826" y2="171.84914" stroke="#888" stroke-width="2"/><line x1="72.408966" y1="192.56581" x2="56.758606" y2="189.23923" stroke="#888" stroke-width="2"/><line x1="69.85458" y1="208.69357" x2="53.94223" y2="207.02112" stroke="#888" stroke-width="2"/><line x1="69" y1="225" x2="53" y2="225" stroke="#888" stroke-width="2"/><line x1="69.85458" y1="241.3065" x2="53.942245" y2="242.97896" stroke="#888" stroke-width="2"/><line x1="72.40898" y1="257.43427" x2="56.75862" y2="260.76086" stroke="#888" stroke-width="2"/><line x1="76.63519" y1="273.20667" x2="61.41829" y2="278.15094" stroke="#888" stroke-width="2"/><line x1="82.48691" y1="288.45093" x2="67.87019" y2="294.9587" stroke="#888" stroke-width="2"/><line x1="89.90007" y1="303.00006" x2="76.04367" y2="311.00006" stroke="#888" stroke-width="2"/><line x1="98.79337" y1="316.69452" x2="85.849106" y2="326.09912" stroke="#888" stroke-width="2"/><line x1="109.06942" y1="329.3844" x2="97.1791" y2="340.09048" stroke="#888" stroke-width="2"/><line x1="120.61563" y1="340.9306" x2="109.909546" y2="352.82092" stroke="#888" stroke-width="2"/><line x1="133.30554" y1="351.2067" x2="123.900986" y2="364.15097" stroke="#888" stroke-width="2"/><line x1="147.00003" y1="360.09998" x2="139.00003" y2="373.9564" stroke="#888" stroke-width="2"/><line x1="161.5491" y1="367.51312" x2="155.04132" y2="382.12982" stroke="#888" stroke-width="2"/><line x1="176.79337" y1="373.3648" x2="171.84909" y2="388.58173" stroke="#888" stroke-width="2"/><line x1="192.56584" y1="377.59103" x2="189.23926" y2="393.2414" stroke="#888" stroke-width="2"/><line x1="208.6936" y1="380.14542" x2="207.02115" y2="396.05777" stroke="#888" stroke-width="2"/><line x1="225.00003" y1="381" x2="225.00003" y2="397" stroke="#888" stroke-width="2"/><line x1="241.30652" y1="380.14542" x2="242.97899" y2="396.05774" stroke="#888" stroke-width="2"/><line x1="257.4343" y1="377.591" x2="260.7609" y2="393.24136" stroke="#888" stroke-width="2"/><line x1="273.2067" y1="373.3648" x2="278.15097" y2="388.58173" stroke="#888" stroke-width="2"/><line x1="288.45093" y1="367.51306" x2="294.95874" y2="382.12982" stroke="#888" stroke-width="2"/><line x1="303" y1="360.09998" x2="311" y2="373.95636" stroke="#888" stroke-width="2"/><line x1="316.69455" y1="351.2066" x2="326.09912" y2="364.15088" stroke="#888" stroke-width="2"/><line x1="329.3844" y1="340.93057" x2="340.0905" y2="352.82086" stroke="#888" stroke-width="2"/><line x1="340.9306" y1="329.38434" x2="352.82092" y2="340.09045" stroke="#888" stroke-width="2"/><line x1="351.2067" y1="316.69443" x2="364.15097" y2="326.099" stroke="#888" stroke-width="2"/><line x1="360.09998" y1="302.99994" x2="373.95642" y2="310.99994" stroke="#888" stroke-width="2"/><line x1="367.51312" y1="288.45087" x2="382.12985" y2="294.95865" stroke="#888" stroke-width="2"/><line x1="373.3648" y1="273.2066" x2="388.58173" y2="278.15088" stroke="#888" stroke-width="2"/><line x1="377.59103" y1="257.4342" x2="393.2414" y2="260.7608" stroke="#888" stroke-width="2"/><line x1="380.14542" y1="241.30637" x2="396.05777" y2="242.97882" stroke="#888" stroke-width="2"/><line x1="345" y1="225" x2="361" y2="225" stroke="#888" stroke-width="2"/><line x1="328.92303" y1="165" x2="342.77945" y2="157" stroke="#888" stroke-width="2"/><line x1="285" y1="121.07695" x2="293" y2="107.22055" stroke="#888" stroke-width="2"/><line x1="224.99998" y1="105" x2="224.99998" y2="89" stroke="#888" stroke-width="2"/><line x1="164.99997" y1="121.076965" x2="156.99997" y2="107.220566" stroke="#888" stroke-width="2"/><line x1="121.07695" y1="165.00002" x2="107.220535" y2="157.00002" stroke="#888" stroke-width="2"/><line x1="105" y1="225" x2="89" y2="225" stroke="#888" stroke-width="2"/><line x1="121.07697" y1="285.00003" x2="107.22057" y2="293.00006" stroke="#888" stroke-width="2"/><line x1="165.00003" y1="328.92307" x2="157.00003" y2="342.77948" stroke="#888" stroke-width="2"/><line x1="225.00002" y1="345" x2="225.00003" y2="361" stroke="#888" stroke-width="2"/><line x1="285" y1="328.92303" x2="293" y2="342.77945" stroke="#888" stroke-width="2"/><line x1="328.92307" y1="284.99994" x2="342.77948" y2="292.99994" stroke="#888" stroke-width="2"/><circle cx="225" cy="225" r="100" stroke="#888" fill="transparent" stroke-width="2"/></svg>